<svg width="20" height="20" xmlns="http://www.w3.org/2000/svg">
 <title/>
 <desc/>

 <g>
  <title>background</title>
  <rect fill="none" id="canvas_background" height="402" width="582" y="-1" x="-1"/>
 </g>
 <g>
  <title>Layer 1</title>
  <path fill="#ba5624" id="Shape" d="m6,16c-1.1,0 -2,0.9 -2,2c0,1.1 0.9,2 2,2c1.1,0 2,-0.9 2,-2c0,-1.1 -0.9,-2 -2,-2l0,0zm-6,-16l0,2l2,0l3.6,7.6l-1.4,2.4c-0.1,0.3 -0.2,0.7 -0.2,1c0,1.1 0.9,2 2,2l12,0l0,-2l-11.6,0c-0.1,0 -0.2,-0.1 -0.2,-0.2l0,-0.1l0.9,-1.7l7.4,0c0.8,0 1.4,-0.4 1.7,-1l3.6,-6.5c0.2,-0.2 0.2,-0.3 0.2,-0.5c0,-0.6 -0.4,-1 -1,-1l-14.8,0l-0.9,-2l-3.3,0l0,0zm16,16c-1.1,0 -2,0.9 -2,2c0,1.1 0.9,2 2,2c1.1,0 2,-0.9 2,-2c0,-1.1 -0.9,-2 -2,-2l0,0z"/>
 </g>
</svg>