<svg width="100" height="100" xmlns="http://www.w3.org/2000/svg">

 <g>
  <title>background</title>
  <rect fill="none" id="canvas_background" height="402" width="582" y="-1" x="-1"/>
 </g>
 <g>
  <title>Layer 1</title>
  <path fill="#ba5624" id="svg_1" d="m86.77,41.139c-1.08,-4.17 -5.78,-18.26 -20.7,-24.52c-9.35,-3.92 -18.19,-2.85 -24.75,-0.77c-0.06,0.05 -0.14,0.09 -0.22,0.11c-0.09,0.02 -0.17,0.03 -0.26,0.05c-6.16,2.04 -10.2,4.92 -10.53,5.17c-0.22,0.16 -0.54,0.11 -0.7,-0.11c-0.16,-0.22 -0.11,-0.54 0.11,-0.7c0.28,-0.21 3.14,-2.25 7.67,-4.14c-2.49,-0.09 -4.67,-0.72 -6.41,-1.21c-1.28,-0.36 -2.37,-0.67 -3.18,-0.67c-0.36,0 -0.67,0.06 -0.91,0.21c-0.4,0.26 -0.66,0.8 -0.8,1.67c-0.51,3.29 -1.82,5.98 -3.08,8.57c-1.96,4.04 -3.81,7.85 -2.53,13.53c0.97,4.29 0.66,6.86 0.39,9.14c-0.33,2.74 -0.59,4.91 1.83,9.14c1.71,3 2.57,5.39 3.34,7.51c1.17,3.25 2.02,5.6 5.36,7.91c2.68,1.86 4.25,3.5 5.65,4.95c1.54,1.6 2.87,2.98 5.27,4.22c2.35,1.21 7.28,2.43 13.32,2.18c-3.07,-0.9 -5.6,-2.68 -7.16,-5.14c-0.15,-0.24 -0.08,-0.54 0.16,-0.69c0.23,-0.15 0.54,-0.08 0.69,0.15c2,3.17 5.81,5.12 10.26,5.31c1.08,-0.15 2.18,-0.36 3.3,-0.62c0.03,-0.01 0.07,-0.02 0.11,-0.02c7.48,-1.79 13.48,-5.29 17.84,-10.4c9.91,-11.64 7.05,-26.54 5.93,-30.83zm-56.19,5.48c-0.05,0.02 -0.11,0.03 -0.16,0.03c-0.21,0 -0.4,-0.13 -0.48,-0.34c-1.87,-5.41 -2.32,-11.25 -1.29,-16.88c0.05,-0.27 0.32,-0.45 0.58,-0.4c0.28,0.05 0.46,0.31 0.41,0.58c-1.01,5.46 -0.57,11.13 1.25,16.38c0.09,0.26 -0.05,0.54 -0.31,0.63z"/>
  <path fill="#ba5624" id="svg_2" d="m59.1,84.089c-5.66,2.08 -12.15,2.54 -16.59,1.01c-0.93,-0.32 -2.17,-0.43 -3.62,-0.57c-2.45,-0.23 -5.5,-0.52 -8.58,-1.9c-3.28,-1.47 -5.1,-3.83 -7.41,-6.83c-1.08,-1.42 -2.32,-3.03 -3.86,-4.72c-3.23,-3.57 -4.04,-7.86 -4.68,-11.31c-0.28,-1.53 -0.55,-2.96 -0.99,-4.15c-2.19,-5.96 -1.32,-9.44 -0.4,-13.13c0.27,-1.06 0.54,-2.16 0.73,-3.32c0.7,-4.17 2.95,-7.93 6.87,-11.44c-1.26,3.06 -2.05,6.45 -1.06,10.82c0.93,4.12 0.63,6.6 0.37,8.8c-0.34,2.81 -0.63,5.23 1.95,9.76c1.67,2.92 2.52,5.27 3.27,7.35c1.19,3.29 2.13,5.9 5.73,8.39c2.59,1.81 4.14,3.41 5.5,4.82c1.6,1.67 2.98,3.1 5.54,4.42c2.23,1.15 6.7,2.32 12.23,2.32c1.59,0 3.26,-0.1 5,-0.32z"/>
 </g>
</svg>